<svg width="25" height="28" viewBox="0 0 25 28" fill="none" xmlns="http://www.w3.org/2000/svg">
<line x1="3" y1="27.5" x2="23" y2="27.5" stroke="white"/>
<line x1="3" y1="23.5" x2="23" y2="23.5" stroke="white"/>
<path d="M8.12176 13.3759L10.9594 10.5383L3.92049 3.50943C2.3563 5.07362 2.3563 7.61043 3.92049 9.18465L8.12176 13.3759ZM14.92 11.561C16.4541 12.2729 18.6099 11.7716 20.2042 10.1773C22.1193 8.26217 22.4903 5.51481 21.0163 4.04085C19.5524 2.57693 16.805 2.93789 14.8799 4.85303C13.2856 6.44731 12.7843 8.60309 13.4962 10.1372L3.70993 19.9235L5.12372 21.3372L12.0322 14.4488L18.9307 21.3473L20.3445 19.9335L13.446 13.035L14.92 11.561Z" fill="white"/>
</svg>
